<?xml version="1.0" encoding="UTF-8" standalone="no"?>
<svg
   width="150.00261"
   height="14.975"
   viewBox="0 0 150.00261 14.975"
   fill="none"
   version="1.1"
   id="svg1001"
   sodipodi:docname="hmc-logo.svg"
   inkscape:version="1.2.1 (9c6d41e, 2022-07-14)"
   xmlns:inkscape="http://www.inkscape.org/namespaces/inkscape"
   xmlns:sodipodi="http://sodipodi.sourceforge.net/DTD/sodipodi-0.dtd"
   xmlns="http://www.w3.org/2000/svg"
   xmlns:svg="http://www.w3.org/2000/svg">
  <defs
     id="defs1005" />
  <sodipodi:namedview
     id="namedview1003"
     pagecolor="#505050"
     bordercolor="#eeeeee"
     borderopacity="1"
     inkscape:showpageshadow="0"
     inkscape:pageopacity="0"
     inkscape:pagecheckerboard="0"
     inkscape:deskcolor="#505050"
     showgrid="false"
     inkscape:zoom="3.0775"
     inkscape:cx="39.317628"
     inkscape:cy="12.997563"
     inkscape:window-width="1512"
     inkscape:window-height="856"
     inkscape:window-x="0"
     inkscape:window-y="38"
     inkscape:window-maximized="1"
     inkscape:current-layer="svg1001" />
  <g
     id="g1159"
     transform="matrix(0.38589195,0,0,0.38589195,-1.6818715,-2.9488319)">
    <path
       d="M 144.776,40.2983 159.642,26.9252 144.776,13.552 150.09,7.6416 169.015,24.7162 v 4.4179 l -18.925,17.015 z"
       fill="#14c8ff"
       id="path931" />
    <path
       d="M 28.6569,40.2983 13.7912,26.9252 28.6569,13.552 23.3435,7.6416 4.3584,24.7162 v 4.4179 l 18.9851,17.015 z"
       fill="#14c8ff"
       id="path933" />
    <path
       d="M 57.3136,23.2834 V 7.6416 h 7.403 v 38.5075 h -7.403 V 30.6267 H 44.6569 v 15.5224 h -7.403 V 7.6416 h 7.403 v 15.6418 z"
       fill="#002864"
       id="path935" />
    <path
       d="M 104.538,7.70166 V 46.2091 H 97.1347 V 24.8957 l -5.194,10.8657 c -0.1791,0.3582 -0.4776,0.5373 -0.8955,0.5373 h -5.7911 c -0.3582,0 -0.7164,-0.2388 -0.8358,-0.5373 l -5.194,-10.8657 v 21.3134 h -7.403 V 7.70166 h 7.403 L 88.1795,26.5076 97.1347,7.70166 Z"
       fill="#002864"
       id="path937" />
    <path
       d="m 133.433,35.164 5.254,5.194 -4,3.9403 c -1.135,1.194 -2.687,1.9105 -4.359,1.9105 h -9.731 c -1.612,0 -3.224,-0.6568 -4.358,-1.7911 l -3.821,-3.8209 c -1.134,-1.194 -1.731,-2.8059 -1.731,-4.4179 V 17.6715 c 0,-1.612 0.656,-3.1642 1.791,-4.3583 l 3.82,-3.82085 c 1.135,-1.13433 2.687,-1.79105 4.299,-1.85075 h 9.731 c 1.672,0 3.224,0.71642 4.359,1.91045 l 4,3.94025 -5.254,5.1941 -3.284,-3.2836 c -0.239,-0.2388 -0.537,-0.3582 -0.895,-0.3582 h -7.582 c -0.299,0 -0.657,0.1194 -0.896,0.3582 l -2.567,2.3881 c -0.239,0.2388 -0.358,0.5373 -0.358,0.8955 V 35.164 c 0,0.3582 0.119,0.6567 0.358,0.8955 l 2.388,2.3881 c 0.239,0.2388 0.537,0.3582 0.895,0.3582 h 7.583 c 0.358,0 0.656,-0.1194 0.895,-0.3582 z"
       fill="#002864"
       id="path939" />
    <path
       d="M 191.344,14.328 V 7.70117 h 3.164 V 24.1191 h -3.164 v -6.6269 h -5.612 v 6.6269 h -3.165 V 7.70117 h 3.165 V 14.328 Z"
       fill="#002864"
       id="path941" />
    <path
       d="m 200.657,10.8654 v 3.4626 h 6.03 v 3.1642 h -6.03 v 3.4627 h 7.224 v 3.1642 h -8.776 c -0.119,0 -0.299,-0.0597 -0.358,-0.1791 l -1.015,-1.0149 c -0.12,-0.1194 -0.179,-0.2389 -0.179,-0.3583 V 9.25341 c 0,-0.1194 0.059,-0.29851 0.179,-0.35821 l 1.015,-1.01492 c 0.119,-0.11941 0.239,-0.17911 0.358,-0.17911 h 8.776 v 3.16423 z"
       fill="#002864"
       id="path943" />
    <path
       d="m 220.12,20.9549 v 3.1642 h -7.941 c -0.119,0 -0.298,-0.0597 -0.358,-0.1791 l -1.015,-1.0149 c -0.119,-0.1194 -0.179,-0.2389 -0.179,-0.3583 V 7.70117 h 3.164 V 20.9549 Z"
       fill="#002864"
       id="path945" />
    <path
       d="M 236.836,7.70117 V 24.1191 h -3.164 v -9.0746 l -2.209,4.6567 c -0.059,0.1194 -0.179,0.2388 -0.358,0.2388 h -2.507 c -0.18,0 -0.299,-0.0597 -0.359,-0.2388 l -2.209,-4.6567 v 9.0746 h -3.164 V 7.70117 h 3.164 l 3.821,8.00003 3.821,-8.00003 z"
       fill="#002864"
       id="path947" />
    <path
       d="M 248.836,14.328 V 7.70117 H 252 V 24.1191 h -3.164 v -6.6269 h -5.612 v 6.6269 H 240.06 V 7.70117 h 3.164 V 14.328 Z"
       fill="#002864"
       id="path949" />
    <path
       d="m 264.836,8.4775 1.672,1.6119 c 0.477,0.4777 0.776,1.1344 0.776,1.8508 v 7.8806 c 0,0.7164 -0.299,1.3731 -0.776,1.8507 l -1.672,1.6717 c -0.478,0.4776 -1.134,0.7761 -1.851,0.7761 h -3.701 c -0.717,0 -1.373,-0.2388 -1.851,-0.7761 l -1.612,-1.6717 c -0.478,-0.4776 -0.776,-1.1343 -0.776,-1.8507 v -7.8806 c 0,-0.7164 0.298,-1.3731 0.776,-1.8508 l 1.612,-1.6119 c 0.537,-0.53731 1.194,-0.77612 1.851,-0.77612 h 3.701 c 0.657,-0.0597 1.314,0.23881 1.851,0.77612 z m -0.776,10.9254 v -7.0448 c 0,-0.1194 -0.06,-0.2985 -0.179,-0.3582 l -1.015,-1.0149 c -0.12,-0.1194 -0.239,-0.1791 -0.418,-0.1791 h -2.746 c -0.12,0 -0.239,0.0597 -0.359,0.1791 l -1.014,1.0149 c -0.12,0.1194 -0.18,0.2388 -0.18,0.3582 v 7.0448 c 0,0.1194 0.06,0.2388 0.18,0.3582 l 1.014,1.0149 c 0.12,0.1194 0.239,0.1791 0.359,0.1791 h 2.806 c 0.119,0 0.298,-0.0597 0.418,-0.1791 l 1.014,-1.0149 c 0.06,-0.1194 0.12,-0.1791 0.12,-0.3582 z"
       fill="#002864"
       id="path951" />
    <path
       d="m 279.702,20.9549 v 3.1642 h -7.941 c -0.119,0 -0.298,-0.0597 -0.358,-0.1791 l -1.015,-1.0149 c -0.119,-0.1194 -0.179,-0.2389 -0.179,-0.3583 V 7.70117 h 3.164 V 20.9549 Z"
       fill="#002864"
       id="path953" />
    <path
       d="M 280.06,10.8654 V 7.70117 h 11.403 v 3.16423 h -4.12 v 13.2537 h -3.164 V 10.8654 Z"
       fill="#002864"
       id="path955" />
    <path
       d="m 303.404,7.70117 c 0.119,0 0.298,0.0597 0.358,0.17911 l 1.015,1.01492 c 0.119,0.1194 0.179,0.23881 0.179,0.35821 v 0.77609 l -6.925,10.9254 h 6.925 v 3.1642 h -9.493 c -0.119,0 -0.298,-0.0597 -0.358,-0.1791 l -1.015,-1.0149 c -0.119,-0.1194 -0.179,-0.2389 -0.179,-0.3583 v -0.9552 l 6.806,-10.7462 h -6.746 V 7.70117 Z"
       fill="#002864"
       id="path957" />
    <path
       d="m 195.523,46.1491 h -1.97 V 36.0595 l -3.642,10.0896 h -1.791 l -3.642,-10.1493 v 10.1493 h -1.97 V 32.2983 h 2.507 l 3.941,10.8657 3.94,-10.8657 h 2.507 v 13.8508 z"
       fill="#002864"
       id="path959" />
    <path
       d="M 206.926,41.6117 H 200 v 0.5373 c 0,1.5522 0.956,2.5074 2.567,2.5074 1.374,0 2.389,-0.7761 2.389,-1.7313 h 1.91 c -0.119,2.0895 -1.851,3.5224 -4.299,3.5224 -2.686,0 -4.477,-1.6717 -4.477,-4.2388 v -2.5075 c 0,-2.5672 1.791,-4.2388 4.418,-4.2388 2.627,0 4.358,1.6716 4.358,4.2388 v 1.9105 z M 200,39.7012 v 0.2985 h 5.015 v -0.2985 c 0,-1.5522 -0.955,-2.5672 -2.448,-2.5672 -1.552,0.0597 -2.567,1.0747 -2.567,2.5672 z"
       fill="#002864"
       id="path961" />
    <path
       d="m 212.418,32.8354 v 2.806 h 3.463 v 1.7314 h -3.463 v 5.6716 c 0,0.8955 0.418,1.3134 1.254,1.3134 h 1.672 v 1.7314 h -1.732 c -2.029,0 -3.104,-1.0746 -3.104,-2.9851 v -5.7313 h -2.746 v -1.7314 h 2.268 c 0.418,0 0.597,-0.1791 0.597,-0.597 v -2.209 z"
       fill="#002864"
       id="path963" />
    <path
       d="m 225.672,39.3433 v 6.8657 h -1.731 l -0.06,-0.8358 c -0.716,0.7164 -1.791,1.0746 -3.104,1.0746 -2.329,0 -3.702,-1.1343 -3.702,-3.0448 0,-1.7313 1.075,-2.6865 3.463,-2.985 L 223.762,40 v -0.6567 c 0,-1.3731 -0.776,-2.0895 -2.269,-2.0895 -1.492,0 -2.328,0.7164 -2.328,1.9701 v 0.1194 h -1.911 v -0.1194 c 0,-2.2686 1.672,-3.7612 4.299,-3.7612 2.627,-0.0597 4.119,1.3732 4.119,3.8806 z m -1.91,3.9403 v -1.791 l -2.866,0.4179 c -1.313,0.1791 -1.851,0.7164 -1.851,1.4925 0,0.8955 0.717,1.3732 1.911,1.3732 1.194,0 2.268,-0.5373 2.806,-1.4926 z"
       fill="#002864"
       id="path965" />
    <path
       d="m 234.925,31.4028 h 1.911 v 14.7463 h -1.732 l -0.059,-0.8955 c -0.717,0.7164 -1.791,1.1343 -2.985,1.1343 -2.448,0 -4.06,-1.6716 -4.06,-4.1791 v -2.6866 c 0,-2.5074 1.612,-4.1791 4.06,-4.1791 1.194,0 2.149,0.3582 2.865,1.0747 z m 0,11.8209 V 38.567 c -0.477,-0.8955 -1.432,-1.3731 -2.507,-1.3731 -1.552,0 -2.508,0.9552 -2.508,2.4477 v 2.5672 c 0,1.4925 0.956,2.4478 2.508,2.4478 1.075,-0.0597 2.03,-0.5373 2.507,-1.4329 z"
       fill="#002864"
       id="path967" />
    <path
       d="m 247.761,39.3433 v 6.8657 h -1.731 l -0.06,-0.8358 c -0.716,0.7164 -1.791,1.0746 -3.104,1.0746 -2.329,0 -3.702,-1.1343 -3.702,-3.0448 0,-1.7313 1.075,-2.6865 3.463,-2.985 L 245.851,40 v -0.6567 c 0,-1.3731 -0.776,-2.0895 -2.269,-2.0895 -1.493,0 -2.328,0.7164 -2.328,1.9701 v 0.1194 h -1.911 v -0.1194 c 0,-2.2686 1.672,-3.7612 4.299,-3.7612 2.627,-0.0597 4.119,1.3732 4.119,3.8806 z m -1.91,3.9403 v -1.791 l -2.866,0.4179 c -1.313,0.1791 -1.851,0.7164 -1.851,1.4925 0,0.8955 0.717,1.3732 1.911,1.3732 1.253,0 2.268,-0.5373 2.806,-1.4926 z"
       fill="#002864"
       id="path969" />
    <path
       d="m 253.552,32.8354 v 2.806 h 3.463 v 1.7314 h -3.463 v 5.6716 c 0,0.8955 0.418,1.3134 1.254,1.3134 h 1.672 v 1.7314 h -1.732 c -2.03,0 -3.104,-1.0746 -3.104,-2.9851 v -5.7313 h -2.746 v -1.7314 h 2.268 c 0.418,0 0.597,-0.1791 0.597,-0.597 v -2.209 z"
       fill="#002864"
       id="path971" />
    <path
       d="m 266.806,39.3433 v 6.8657 h -1.731 l -0.06,-0.8358 c -0.716,0.7164 -1.791,1.0746 -3.105,1.0746 -2.328,0 -3.701,-1.1343 -3.701,-3.0448 0,-1.7313 1.075,-2.6865 3.463,-2.985 L 264.896,40 v -0.6567 c 0,-1.3731 -0.777,-2.0895 -2.269,-2.0895 -1.493,0 -2.328,0.7164 -2.328,1.9701 v 0.1194 h -1.911 v -0.1194 c 0,-2.2686 1.672,-3.7612 4.299,-3.7612 2.626,-0.0597 4.119,1.3732 4.119,3.8806 z m -1.91,3.9403 v -1.791 l -2.866,0.4179 c -1.314,0.1791 -1.851,0.7164 -1.851,1.4925 0,0.8955 0.717,1.3732 1.911,1.3732 1.194,0 2.268,-0.5373 2.806,-1.4926 z"
       fill="#002864"
       id="path973" />
    <path
       d="m 275.284,41.3134 v -4.1791 c 0,-3.0447 2.149,-5.1343 5.314,-5.1343 3.104,0 5.253,2.0299 5.253,4.8955 v 0.5373 h -1.97 v -0.5373 c 0,-1.9104 -1.254,-3.0448 -3.283,-3.0448 -2.09,0 -3.344,1.2538 -3.344,3.3433 v 4 c 0,2.1493 1.194,3.3433 3.344,3.3433 2.029,0 3.283,-1.1343 3.283,-3.0448 v -0.5373 h 1.97 v 0.5373 c 0,2.9254 -2.149,4.8956 -5.253,4.8956 -3.165,0 -5.314,-2.0299 -5.314,-5.0747 z"
       fill="#002864"
       id="path975" />
    <path
       d="m 288.06,42.1491 v -2.4478 c 0,-2.5671 1.731,-4.2985 4.417,-4.2985 2.687,0 4.478,1.6717 4.478,4.2985 v 2.4478 c 0,2.5672 -1.731,4.2388 -4.478,4.2388 -2.626,0 -4.417,-1.6716 -4.417,-4.2388 z m 6.985,-0.0597 v -2.3881 c 0,-1.5522 -0.956,-2.5671 -2.568,-2.5671 -1.552,0 -2.567,0.9552 -2.567,2.5671 v 2.3881 c 0,1.5522 1.015,2.5075 2.567,2.5075 1.612,0 2.568,-0.9553 2.568,-2.5075 z"
       fill="#002864"
       id="path977" />
    <path
       d="M 299.522,46.1491 V 31.4028 h 1.911 v 14.7463 z"
       fill="#002864"
       id="path979" />
    <path
       d="M 304.418,46.1491 V 31.4028 h 1.91 v 14.7463 z"
       fill="#002864"
       id="path981" />
    <path
       d="m 317.433,39.3433 v 6.8657 h -1.731 l -0.06,-0.8358 c -0.716,0.7164 -1.791,1.0746 -3.105,1.0746 -2.328,0 -3.701,-1.1343 -3.701,-3.0448 0,-1.7313 1.075,-2.6865 3.463,-2.985 L 315.523,40 v -0.6567 c 0,-1.3731 -0.777,-2.0895 -2.269,-2.0895 -1.493,0 -2.329,0.7164 -2.329,1.9701 v 0.1194 h -1.91 v -0.1194 c 0,-2.2686 1.672,-3.7612 4.299,-3.7612 2.626,-0.0597 4.119,1.3732 4.119,3.8806 z m -1.91,3.9403 v -1.791 l -2.866,0.4179 c -1.314,0.1791 -1.851,0.7164 -1.851,1.4925 0,0.8955 0.717,1.3732 1.911,1.3732 1.253,0 2.268,-0.5373 2.806,-1.4926 z"
       fill="#002864"
       id="path983" />
    <path
       d="m 328.956,39.5819 v 2.6866 c 0,2.5075 -1.612,4.1791 -4.06,4.1791 -1.194,0 -2.268,-0.4179 -2.985,-1.1343 l -0.06,0.8955 h -1.731 v -14.806 h 1.911 v 5.0747 c 0.716,-0.7165 1.731,-1.0747 2.865,-1.0747 2.508,0 4.06,1.6717 4.06,4.1791 z m -1.911,0.0597 c 0,-1.4925 -0.955,-2.4477 -2.447,-2.4477 -1.075,0 -2.03,0.4776 -2.508,1.3731 v 4.6567 c 0.478,0.8956 1.433,1.3732 2.508,1.3732 1.492,0 2.447,-0.9553 2.447,-2.4478 z"
       fill="#002864"
       id="path985" />
    <path
       d="m 331.045,42.1491 v -2.4478 c 0,-2.5671 1.731,-4.2985 4.418,-4.2985 2.686,0 4.477,1.6717 4.477,4.2985 v 2.4478 c 0,2.5672 -1.731,4.2388 -4.477,4.2388 -2.687,0 -4.418,-1.6716 -4.418,-4.2388 z m 6.985,-0.0597 v -2.3881 c 0,-1.5522 -0.955,-2.5671 -2.567,-2.5671 -1.552,0 -2.567,0.9552 -2.567,2.5671 v 2.3881 c 0,1.5522 1.015,2.5075 2.567,2.5075 1.552,0 2.567,-0.9553 2.567,-2.5075 z"
       fill="#002864"
       id="path987" />
    <path
       d="m 348.239,35.6416 v 1.7313 h -1.552 c -1.074,0 -1.91,0.4777 -2.388,1.3135 v 7.403 h -1.91 V 35.6416 h 1.731 l 0.06,0.8955 c 0.656,-0.597 1.552,-0.8955 2.567,-0.8955 z"
       fill="#002864"
       id="path989" />
    <path
       d="M 357.732,39.3433 V 46.209 H 356 l -0.059,-0.8358 c -0.717,0.7164 -1.791,1.0746 -3.105,1.0746 -2.328,0 -3.701,-1.1343 -3.701,-3.0448 0,-1.7313 1.074,-2.6865 3.462,-2.985 L 355.821,40 v -0.6567 c 0,-1.3731 -0.776,-2.0895 -2.268,-2.0895 -1.493,0 -2.329,0.7164 -2.329,1.9701 v 0.1194 h -1.97 v -0.1194 c 0,-2.2686 1.672,-3.7612 4.299,-3.7612 2.686,-0.0597 4.179,1.3732 4.179,3.8806 z m -1.911,3.9403 v -1.791 l -2.865,0.4179 c -1.314,0.1791 -1.851,0.7164 -1.851,1.4925 0,0.8955 0.716,1.3732 1.91,1.3732 1.194,0 2.269,-0.5373 2.806,-1.4926 z"
       fill="#002864"
       id="path991" />
    <path
       d="m 363.463,32.8354 v 2.806 h 3.463 v 1.7314 h -3.463 v 5.6716 c 0,0.8955 0.418,1.3134 1.254,1.3134 h 1.672 v 1.7314 h -1.732 c -2.029,0 -3.104,-1.0746 -3.104,-2.9851 v -5.7313 h -2.746 v -1.7314 h 2.268 c 0.418,0 0.597,-0.1791 0.597,-0.597 v -2.209 z"
       fill="#002864"
       id="path993" />
    <path
       d="m 368.299,32.7758 c 0,-0.7761 0.597,-1.3134 1.313,-1.3134 0.776,0 1.314,0.5373 1.314,1.3134 0,0.7165 -0.538,1.3135 -1.314,1.3135 -0.776,-0.0597 -1.313,-0.597 -1.313,-1.3135 z m 2.268,13.3732 h -1.91 V 35.6415 h 1.91 z"
       fill="#002864"
       id="path995" />
    <path
       d="m 373.135,42.1491 v -2.4478 c 0,-2.5671 1.731,-4.2985 4.418,-4.2985 2.686,0 4.477,1.6717 4.477,4.2985 v 2.4478 c 0,2.5672 -1.731,4.2388 -4.477,4.2388 -2.627,0 -4.418,-1.6716 -4.418,-4.2388 z m 6.985,-0.0597 v -2.3881 c 0,-1.5522 -0.955,-2.5671 -2.567,-2.5671 -1.553,0 -2.568,0.9552 -2.568,2.5671 v 2.3881 c 0,1.5522 1.015,2.5075 2.568,2.5075 1.612,0 2.567,-0.9553 2.567,-2.5075 z"
       fill="#002864"
       id="path997" />
    <path
       d="m 393.075,39.5222 v 6.6866 h -1.911 v -6.5672 c 0,-1.4925 -0.895,-2.4477 -2.269,-2.4477 -1.074,0 -2.029,0.5373 -2.507,1.3731 v 7.5821 h -1.91 V 35.6416 h 1.731 l 0.06,0.9553 c 0.716,-0.7762 1.731,-1.1941 2.985,-1.1941 2.328,0 3.821,1.5523 3.821,4.1194 z"
       fill="#002864"
       id="path999" />
  </g>
</svg>
