<?xml version="1.0" encoding="UTF-8" standalone="no"?>
<!-- Created with Inkscape (http://www.inkscape.org/) -->

<svg
   version="1.1"
   id="svg182"
   width="150"
   height="68.359032"
   viewBox="0 0 150 68.359031"
   sodipodi:docname="kit-logo.svg"
   inkscape:version="1.2.1 (9c6d41e, 2022-07-14)"
   xmlns:inkscape="http://www.inkscape.org/namespaces/inkscape"
   xmlns:sodipodi="http://sodipodi.sourceforge.net/DTD/sodipodi-0.dtd"
   xmlns="http://www.w3.org/2000/svg"
   xmlns:svg="http://www.w3.org/2000/svg">
  <defs
     id="defs186" />
  <sodipodi:namedview
     id="namedview184"
     pagecolor="#505050"
     bordercolor="#eeeeee"
     borderopacity="1"
     inkscape:showpageshadow="0"
     inkscape:pageopacity="0"
     inkscape:pagecheckerboard="0"
     inkscape:deskcolor="#505050"
     showgrid="false"
     inkscape:zoom="0.52577446"
     inkscape:cx="228.23475"
     inkscape:cy="225.38181"
     inkscape:window-width="1920"
     inkscape:window-height="1077"
     inkscape:window-x="1512"
     inkscape:window-y="25"
     inkscape:window-maximized="1"
     inkscape:current-layer="g190">
    <inkscape:page
       x="0"
       y="0"
       id="page188"
       width="150"
       height="68.359032" />
  </sodipodi:namedview>
  <g
     id="g190"
     inkscape:groupmode="layer"
     inkscape:label="Page 1"
     transform="scale(1.3333333)">
    <g
       id="g192"
       transform="scale(0.15229478)">
      <path
         d="M 733.25,0.27 H 560.363 v 58.882 h 50.547 v 203 h 71.789 v -203 H 733.25 Z M 543.156,261.883 H 471.363 V 0.27 h 71.793 z m -83.89,0 H 379.41 L 284.496,159.98 V 101.633 L 376.453,0 h 82.274 L 352.793,131.75 Z"
         style="fill:#000000;fill-opacity:1;fill-rule:evenodd;stroke:none"
         id="path194" />
      <path
         d="M 62.676,95.988 C 48.965,112.66 37.133,130.941 27.992,150.57 l 239.297,111.313 z"
         style="fill:#32a189;fill-opacity:1;fill-rule:evenodd;stroke:none"
         id="path196" />
      <path
         d="M 267.289,261.883 155.707,24.469 c -19.894,9.14 -38.18,20.433 -54.852,33.879 z"
         style="fill:#32a189;fill-opacity:1;fill-rule:evenodd;stroke:none"
         id="path198" />
      <path
         d="M 267.289,261.883 267.559,0.27 h -2.153 c -21.238,0 -41.941,2.687 -61.84,7.527 z"
         style="fill:#000000;fill-opacity:1;fill-rule:evenodd;stroke:none"
         id="path200" />
      <path
         d="m 10.785,197.891 c -5.379,20.433 -8.066,41.945 -8.336,63.992 h 264.84 z"
         style="fill:#32a189;fill-opacity:1;fill-rule:evenodd;stroke:none"
         id="path202" />
      <path
         d="m 736.863,320.789 c -1.082,0.895 -4.465,2.399 -7.383,2.399 -4.183,0 -7.898,-3.243 -7.898,-7.993 h 17.117 c 0,-7.711 -2.59,-13.543 -10.582,-13.543 -6.769,0 -11.238,5.032 -11.238,12.133 0,7.805 3.902,12.985 12.414,12.985 3.949,0 5.879,-0.946 7.57,-1.559 z m -15.281,-8.887 c 0.328,-3.101 2.113,-6.675 6.441,-6.675 3.809,0 5.973,3.007 5.973,6.675 z m -14.305,14.297 h 4.418 v -23.984 h -4.418 z m 4.703,-34.328 h -4.984 v 4.984 h 4.984 z m -282.316,1.043 h 4.914 v 5.008 h -4.914 z m 10.512,0 h 4.914 v 5.008 h -4.914 z m 14.078,33.285 h 4.418 v -10.91 c 0,-6.019 2.59,-9.781 6.539,-9.781 0.75,0 1.644,0.094 2.445,0.422 v -3.95 c -0.941,-0.187 -1.601,-0.328 -2.918,-0.328 -2.539,0 -5.078,1.789 -6.254,4.278 h -0.093 v -3.715 h -4.137 z m -6.274,-24.554 h -4.421 v 11.097 c 0,5.828 -2.254,9.875 -7.289,9.875 -3.856,-0.234 -5.079,-2.965 -5.079,-8.558 v -12.414 h -4.418 v 14.246 c 0,6.445 2.774,10.308 8.981,10.308 3.34,0 6.535,-1.656 7.855,-4.383 h 0.094 v 3.809 h 4.277 z m -238.316,24.554 h 4.422 v -10.91 c 0,-6.019 2.586,-9.781 6.535,-9.781 0.754,0 1.645,0.094 2.445,0.422 v -3.95 c -0.941,-0.187 -1.597,-0.328 -2.914,-0.328 -2.539,0 -5.078,1.789 -6.254,4.278 h -0.093 v -3.715 h -4.141 z m 491.238,-23.984 h -4.093 v 3.574 h -0.094 c -1.317,-2.586 -3.664,-4.137 -7.899,-4.137 -7.242,0 -10.722,6.582 -10.722,12.743 0,6.207 3.386,11.804 10.254,11.804 3.054,0 6.16,-1.222 8.039,-3.715 h 0.093 v 2.352 c 0,5.086 -2.773,8.238 -7.429,8.238 -3.242,0 -5.266,-0.613 -8.653,-2.164 L 679.93,335 c 3.855,1.316 6.066,1.645 8.605,1.645 8.606,0 12.367,-4.184 12.367,-11.481 z m -11.429,20.41 c -4.137,0 -6.676,-3.949 -6.676,-8.465 0,-4.09 2.211,-8.933 6.676,-8.933 4.703,0 7.007,4.277 7.007,9.261 0,4.469 -2.867,8.137 -7.007,8.137 z m -40.11,-8.418 c 0,6.867 4.985,12.563 12.227,12.563 7.195,0 12.18,-5.696 12.18,-12.563 0,-7.289 -4.891,-12.555 -12.18,-12.555 -7.336,0 -12.227,5.266 -12.227,12.555 z m 4.703,0 c 0,-4.559 2.774,-8.98 7.524,-8.98 4.703,0 7.476,4.421 7.476,8.98 0,4.281 -2.304,8.981 -7.476,8.981 -5.219,0 -7.524,-4.7 -7.524,-8.981 z m -15.613,11.992 h 4.422 V 290.93 h -4.422 z m -30.894,-11.992 c 0,6.867 4.984,12.563 12.226,12.563 7.195,0 12.18,-5.696 12.18,-12.563 0,-7.289 -4.891,-12.555 -12.18,-12.555 -7.336,0 -12.226,5.266 -12.226,12.555 z m 4.703,0 c 0,-4.559 2.773,-8.98 7.523,-8.98 4.703,0 7.477,4.421 7.477,8.98 0,4.281 -2.305,8.981 -7.477,8.981 -5.219,0 -7.523,-4.7 -7.523,-8.981 z m -31.836,11.992 h 4.422 v -11.097 c 0,-5.832 2.257,-9.875 7.289,-9.875 3.855,0.234 5.078,2.961 5.078,8.558 v 12.414 h 4.418 v -14.25 c 0,-6.441 -2.774,-10.297 -8.981,-10.297 -3.339,0 -6.535,1.645 -7.851,4.371 h -0.094 v -3.808 h -4.281 z m -28.731,0 h 4.422 v -11.097 c 0,-5.832 2.258,-9.875 7.289,-9.875 3.856,0.234 5.078,2.961 5.078,8.558 v 12.414 h 4.418 v -14.25 c 0,-6.441 -2.773,-10.297 -8.98,-10.297 -3.34,0 -6.113,1.457 -7.711,3.996 h -0.094 V 290.93 h -4.422 z m -5.265,-23.605 c -1.27,-0.52 -3.575,-0.942 -5.36,-0.942 -7.336,0 -12.226,5.266 -12.226,12.555 0,6.867 4.984,12.563 12.226,12.563 1.598,0 3.715,-0.141 5.547,-0.993 l -0.328,-3.953 c -1.363,0.895 -3.246,1.364 -4.75,1.364 -5.691,0 -7.996,-4.7 -7.996,-8.981 0,-4.559 2.777,-8.98 7.715,-8.98 1.41,0 3.101,0.328 4.797,1.035 z m -23.371,18.195 c -1.082,0.895 -4.469,2.399 -7.383,2.399 -4.188,0 -7.899,-3.243 -7.899,-7.993 h 17.114 c 0,-7.711 -2.586,-13.543 -10.578,-13.543 -6.774,0 -11.239,5.032 -11.239,12.133 0,7.805 3.903,12.985 12.414,12.985 3.95,0 5.879,-0.946 7.571,-1.559 z m -15.282,-8.887 c 0.328,-3.101 2.114,-6.675 6.442,-6.675 3.808,0 5.972,3.007 5.972,6.675 z m -18.812,14.297 h 4.703 v -28.683 h 10.203 v -4.141 h -25.109 v 4.141 h 10.203 z m -78.246,0 h 4.422 v -20.41 h 6.347 v -3.574 h -6.347 v -2.586 c 0,-3.242 0.468,-5.688 4.277,-5.688 0.754,0 1.598,0.094 2.117,0.282 l 0.188,-3.575 c -0.895,-0.14 -1.832,-0.281 -2.961,-0.281 -6.539,0 -8.043,3.809 -8.043,9.641 v 2.207 h -5.645 v 3.574 h 5.645 z m -20.297,-23.984 h -6.348 v -6.957 l -4.422,1.41 v 5.547 h -5.41 v 3.574 h 5.41 v 14.016 c 0,4.797 2.821,6.965 7.383,6.965 1.41,0 2.774,-0.375 3.762,-0.665 v -3.761 c -0.656,0.422 -1.645,0.844 -3.012,0.844 -2.019,0 -3.711,-1.504 -3.711,-4.278 v -13.121 h 6.348 z m -20.27,0 h -4.418 v 11.098 c 0,5.832 -2.257,9.875 -7.289,9.875 -3.855,-0.235 -5.078,-2.961 -5.078,-8.555 v -12.418 h -4.422 v 14.25 c 0,6.441 2.774,10.305 8.981,10.305 3.34,0 6.539,-1.653 7.855,-4.379 h 0.094 v 3.808 h 4.277 z m -26.754,0 h -6.351 v -6.957 l -4.418,1.41 v 5.547 h -5.41 v 3.574 h 5.41 v 14.016 c 0,4.797 2.82,6.965 7.383,6.965 1.41,0 2.773,-0.375 3.761,-0.665 v -3.761 c -0.66,0.422 -1.648,0.844 -3.011,0.844 -2.02,0 -3.715,-1.504 -3.715,-4.278 v -13.121 h 6.351 z m -25.253,23.984 h 4.421 v -23.984 h -4.421 z m 4.703,-34.328 h -4.985 v 4.984 h 4.985 z m -10.817,10.344 h -6.347 v -6.957 l -4.422,1.41 v 5.547 h -5.407 v 3.574 h 5.407 v 14.016 c 0,4.797 2.82,6.965 7.383,6.965 1.41,0 2.773,-0.375 3.761,-0.665 v -3.761 c -0.656,0.422 -1.644,0.844 -3.008,0.844 -2.023,0 -3.714,-1.504 -3.714,-4.278 v -13.121 h 6.347 z m -33.058,23.23 c 2.023,1.09 4.328,1.325 6.582,1.325 4.281,0 8.371,-2.36 8.371,-7.485 0,-7.664 -10.391,-6.254 -10.391,-11.144 0,-1.973 1.973,-2.914 4.231,-2.914 1.035,0 3.668,0.609 4.656,1.222 l 0.375,-3.855 c -1.738,-0.52 -3.43,-0.942 -5.5,-0.942 -4.75,0 -8.465,2.399 -8.465,7.383 0,6.727 10.391,6.348 10.391,10.723 0,2.586 -2.493,3.43 -4.512,3.43 -1.27,0 -3.762,-0.563 -5.504,-1.692 z m -26.711,0.754 h 4.422 v -11.097 c 0,-5.832 2.257,-9.875 7.289,-9.875 3.855,0.234 5.078,2.961 5.078,8.558 v 12.414 h 4.422 v -14.25 c 0,-6.441 -2.778,-10.297 -8.985,-10.297 -3.336,0 -6.535,1.645 -7.851,4.371 h -0.094 v -3.808 h -4.281 z m -12.649,0 h 4.703 v -32.824 h -4.703 z m -38.961,-5.41 c -1.082,0.895 -4.468,2.399 -7.382,2.399 -4.188,0 -7.899,-3.243 -7.899,-7.993 h 17.113 c 0,-7.711 -2.586,-13.543 -10.578,-13.543 -6.773,0 -11.238,5.032 -11.238,12.133 0,7.805 3.902,12.985 12.414,12.985 3.949,0 5.879,-0.946 7.57,-1.559 z m -15.281,-8.887 c 0.328,-3.101 2.113,-6.675 6.442,-6.675 3.808,0 5.972,3.007 5.972,6.675 z m -31.836,14.297 h 4.418 v -11.097 c 0,-5.832 2.258,-9.875 7.289,-9.875 3.856,0.234 5.078,2.961 5.078,8.558 v 12.414 h 4.422 v -14.25 c 0,-6.441 -2.773,-10.297 -8.98,-10.297 -3.34,0 -6.114,1.457 -7.715,3.996 h -0.094 V 290.93 h -4.418 z m -7.523,-23.984 h -4.422 v 11.098 c 0,5.832 -2.254,9.875 -7.289,9.875 -3.856,-0.235 -5.078,-2.961 -5.078,-8.555 v -12.418 h -4.418 v 14.25 c 0,6.441 2.773,10.305 8.98,10.305 3.34,0 6.535,-1.653 7.852,-4.379 h 0.093 v 3.808 h 4.282 z m -39.5,23.984 h 4.418 v -10.91 c 0,-6.019 2.586,-9.781 6.535,-9.781 0.754,0 1.648,0.094 2.449,0.422 v -3.95 c -0.941,-0.187 -1.601,-0.328 -2.918,-0.328 -2.539,0 -5.078,1.789 -6.254,4.278 h -0.094 v -3.715 h -4.136 z m -20.317,-0.754 c 2.024,1.09 4.328,1.325 6.582,1.325 4.282,0 8.371,-2.36 8.371,-7.485 0,-7.664 -10.39,-6.254 -10.39,-11.144 0,-1.973 1.972,-2.914 4.23,-2.914 1.035,0 3.668,0.609 4.657,1.222 l 0.375,-3.855 c -1.739,-0.52 -3.43,-0.942 -5.5,-0.942 -4.75,0 -8.465,2.399 -8.465,7.383 0,6.727 10.39,6.348 10.39,10.723 0,2.586 -2.488,3.43 -4.511,3.43 -1.27,0 -3.762,-0.563 -5.504,-1.692 z m -10.484,0.754 h 4.418 V 290.93 h -4.418 z m -18.859,0 h 4.421 v -10.91 c 0,-6.019 2.586,-9.781 6.536,-9.781 0.754,0 1.644,0.094 2.445,0.422 v -3.95 c -0.941,-0.187 -1.598,-0.328 -2.914,-0.328 -2.539,0 -5.082,1.789 -6.254,4.278 h -0.098 v -3.715 H 56.852 Z M 32.07,307.672 c 1.785,-1.504 4.469,-2.445 6.957,-2.445 4.422,0 5.926,2.117 5.926,6.253 -1.738,-0.093 -2.961,-0.093 -4.699,-0.093 -4.563,0 -11.149,1.879 -11.149,7.898 0,5.223 3.625,7.485 8.797,7.485 4.043,0 6.395,-2.215 7.43,-3.676 h 0.094 v 3.105 h 4.137 c -0.094,-0.707 -0.188,-1.976 -0.188,-4.703 v -9.922 c 0,-6.535 -2.773,-9.922 -9.641,-9.922 -3.054,0 -5.691,0.942 -7.898,2.258 z m 12.883,9.215 c 0,3.574 -2.301,6.301 -6.676,6.301 -2.023,0 -4.468,-1.364 -4.468,-3.903 0,-4.23 5.925,-4.605 8.324,-4.605 0.941,0 1.879,0.093 2.82,0.093 z M 0,326.199 h 4.703 v -16.082 l 14.625,16.082 h 6.863 L 9.547,308.895 24.969,293.375 H 18.715 L 4.703,307.813 V 293.375 H 0 Z"
         style="fill:#000000;fill-opacity:1;fill-rule:nonzero;stroke:none"
         id="path204" />
    </g>
  </g>
</svg>
