<?xml version="1.0" encoding="UTF-8" standalone="no"?>
<svg
   width="39.687943mm"
   height="8.297863mm"
   viewBox="0 0 112.50121 23.521812"
   version="1.1"
   id="svg783"
   sodipodi:docname="synhelion-logo.svg"
   inkscape:version="1.2.1 (9c6d41e, 2022-07-14)"
   xmlns:inkscape="http://www.inkscape.org/namespaces/inkscape"
   xmlns:sodipodi="http://sodipodi.sourceforge.net/DTD/sodipodi-0.dtd"
   xmlns="http://www.w3.org/2000/svg"
   xmlns:svg="http://www.w3.org/2000/svg">
  <defs
     id="defs787" />
  <sodipodi:namedview
     id="namedview785"
     pagecolor="#505050"
     bordercolor="#eeeeee"
     borderopacity="1"
     inkscape:showpageshadow="0"
     inkscape:pageopacity="0"
     inkscape:pagecheckerboard="0"
     inkscape:deskcolor="#505050"
     inkscape:document-units="mm"
     showgrid="false"
     inkscape:zoom="2.2080579"
     inkscape:cx="192.47684"
     inkscape:cy="53.440629"
     inkscape:window-width="1512"
     inkscape:window-height="856"
     inkscape:window-x="0"
     inkscape:window-y="38"
     inkscape:window-maximized="1"
     inkscape:current-layer="svg783" />
  <g
     id="g781"
     transform="matrix(0.29342365,0,0,0.29342365,-0.00260354,0)">
    <path
       d="m 32.271,80.162 v 0 A 12.987,12.987 0 0 1 19.278,67.168 c 0,-16.39 17.805,-25.675 44.793,-26.3 A 51.4,51.4 0 0 0 62.092,32.104 C 34.355,33 15.423,44.67 15.423,63.312 a 16.841,16.841 0 0 0 16.848,16.85"
       fill="#f9d900"
       id="path771" />
    <path
       d="m 52.4,14.6 a 51.522,51.522 0 0 1 5.935,8.7 C 30.873,24.736 11.567,38.85 11.567,59.456 A 20.694,20.694 0 0 0 32.267,80.162 24.548,24.548 0 0 1 7.711,55.6 c 0,-22.037 18.668,-38.406 44.686,-41"
       fill="#f9d900"
       id="path773" />
    <path
       d="M 32.271,80.162 A 28.4,28.4 0 0 1 3.854,51.743 c 0,-22.544 16.7,-40.577 39.9,-45.282 A 51.431,51.431 0 0 0 32.271,0 51.613,51.613 0 0 0 0,47.887 32.255,32.255 0 0 0 32.271,80.162"
       fill="#f9d900"
       id="path775" />
    <path
       d="M 33.968,80.162 H 32.329 C 48.092,80.162 60.31,65.64 60.31,49.878 A 15.828,15.828 0 0 1 64.685,49.607 30.435,30.435 0 0 1 33.968,80.162"
       fill="#f9d900"
       id="path777" />
    <path
       d="m 351.815,65.746 h 7.058 V 47.257 c 0,-6.049 4.036,-10.083 9.414,-10.083 5.378,0 8.068,2.621 8.068,8.74 v 19.832 h 7.059 v -20.5 c 0,-9.479 -5.042,-14.454 -13.446,-14.454 a 13.09,13.09 0 0 0 -8.269,2.688 10.358,10.358 0 0 0 -2.488,2.69 h -0.338 v -4.711 h -7.058 z M 317.527,48.6 c 0,-6.991 4.3,-11.428 10.421,-11.428 6.121,0 10.42,4.437 10.42,11.428 0,6.991 -4.3,11.43 -10.42,11.43 -6.12,0 -10.421,-4.43 -10.421,-11.43 m -7.395,0 A 17.817,17.817 0 1 0 327.948,30.785 17.594,17.594 0 0 0 310.132,48.6 m -13.108,17.146 h 7.059 V 31.459 h -7.059 z m -0.674,-43.5 a 4.1,4.1 0 0 0 4.168,4.168 4.16,4.16 0 0 0 4.236,-4.168 4.218,4.218 0 0 0 -4.236,-4.236 4.163,4.163 0 0 0 -4.168,4.236 m -18.822,43.5 h 14.789 v -6.385 h -7.73 V 18.686 h -7.059 z m -33.616,-20.5 A 10.054,10.054 0 0 1 254,37.174 c 6.119,0 9.345,4.034 10.084,8.067 z m -7.4,3.361 A 17.481,17.481 0 0 0 254,66.419 a 18.183,18.183 0 0 0 13.581,-5.513 17.964,17.964 0 0 0 3.562,-5.581 h -7.394 a 10.527,10.527 0 0 1 -2.22,2.355 11.651,11.651 0 0 1 -7.529,2.352 c -5.043,0 -9.344,-3.362 -10.421,-9.075 h 27.9 V 48.6 a 17.483,17.483 0 1 0 -34.959,0 M 199.2,65.746 h 7.061 V 47.257 c 0,-6.049 4.033,-10.083 9.411,-10.083 5.378,0 8.068,2.621 8.068,8.74 v 19.832 h 7.06 v -20.5 c 0,-9.479 -5.042,-14.454 -13.446,-14.454 a 13.1,13.1 0 0 0 -8.269,2.688 10.375,10.375 0 0 0 -2.488,2.69 h -0.335 V 18.686 H 199.2 Z m -39.328,0 h 7.059 V 47.257 c 0,-6.049 4.033,-10.083 9.411,-10.083 5.378,0 8.068,2.621 8.068,8.74 v 19.832 h 7.059 v -20.5 c 0,-9.479 -5.042,-14.454 -13.446,-14.454 a 13.1,13.1 0 0 0 -8.269,2.688 10.441,10.441 0 0 0 -2.487,2.69 h -0.336 v -4.711 h -7.059 z m -37.645,-34.287 9.411,34.287 h 7.062 l -4.035,12.775 h 7.4 l 14.118,-47.062 h -7.4 l -8.068,27.564 h -3.7 l -7.4,-27.564 z M 80.545,51.628 a 18.943,18.943 0 0 0 3.226,7.733 c 2.69,3.9 7.733,7.73 16.608,7.73 11.763,0 18.486,-6.723 18.486,-14.454 0,-10.22 -11.024,-12.236 -19.293,-14.656 -4.977,-1.345 -8.943,-3.228 -8.943,-6.858 0,-3.7 3.026,-6.723 9.412,-6.723 4.774,0 7.329,1.68 8.741,3.361 a 8.779,8.779 0 0 1 1.679,3.362 h 8.069 a 18.74,18.74 0 0 0 -3.092,-6.859 c -2.487,-3.427 -7.194,-6.923 -15.4,-6.923 -10.757,0 -17.48,6.79 -17.48,14.118 0,10.353 11.027,12.572 19.3,14.723 4.974,1.345 8.942,3.094 8.942,6.791 0,4.033 -2.958,7.059 -10.42,7.059 -5.313,0 -8.2,-2.084 -9.817,-4.168 a 10.212,10.212 0 0 1 -1.949,-4.236 z"
       fill="#333333"
       id="path779" />
  </g>
</svg>
